<?xml version="1.0" standalone="no"?>
<svg xmlns:xlink="http://www.w3.org/1999/xlink" id="wave" style="transform:rotate(180deg); transition: 0.3s" viewBox="0 0 1440 100" version="1.1" xmlns="http://www.w3.org/2000/svg"><defs><linearGradient id="sw-gradient-0" x1="0" x2="0" y1="1" y2="0"><stop stop-color="rgba(254, 162, 14, 1)" offset="0%"/><stop stop-color="rgba(254, 162, 14, 1)" offset="100%"/></linearGradient></defs><path style="transform:translate(0, 0px); opacity:1" fill="url(#sw-gradient-0)" d="M0,10L26.7,16.7C53.3,23,107,37,160,40C213.3,43,267,37,320,30C373.3,23,427,17,480,16.7C533.3,17,587,23,640,21.7C693.3,20,747,10,800,15C853.3,20,907,40,960,45C1013.3,50,1067,40,1120,43.3C1173.3,47,1227,63,1280,65C1333.3,67,1387,53,1440,43.3C1493.3,33,1547,27,1600,26.7C1653.3,27,1707,33,1760,43.3C1813.3,53,1867,67,1920,71.7C1973.3,77,2027,73,2080,61.7C2133.3,50,2187,30,2240,31.7C2293.3,33,2347,57,2400,55C2453.3,53,2507,27,2560,15C2613.3,3,2667,7,2720,15C2773.3,23,2827,37,2880,43.3C2933.3,50,2987,50,3040,45C3093.3,40,3147,30,3200,28.3C3253.3,27,3307,33,3360,43.3C3413.3,53,3467,67,3520,66.7C3573.3,67,3627,53,3680,48.3C3733.3,43,3787,47,3813,48.3L3840,50L3840,100L3813.3,100C3786.7,100,3733,100,3680,100C3626.7,100,3573,100,3520,100C3466.7,100,3413,100,3360,100C3306.7,100,3253,100,3200,100C3146.7,100,3093,100,3040,100C2986.7,100,2933,100,2880,100C2826.7,100,2773,100,2720,100C2666.7,100,2613,100,2560,100C2506.7,100,2453,100,2400,100C2346.7,100,2293,100,2240,100C2186.7,100,2133,100,2080,100C2026.7,100,1973,100,1920,100C1866.7,100,1813,100,1760,100C1706.7,100,1653,100,1600,100C1546.7,100,1493,100,1440,100C1386.7,100,1333,100,1280,100C1226.7,100,1173,100,1120,100C1066.7,100,1013,100,960,100C906.7,100,853,100,800,100C746.7,100,693,100,640,100C586.7,100,533,100,480,100C426.7,100,373,100,320,100C266.7,100,213,100,160,100C106.7,100,53,100,27,100L0,100Z"/></svg>